<?xml version="1.0"?>
<svg xmlns="http://www.w3.org/2000/svg" height="512px" version="1.1" viewBox="0 0 512.00202 512" width="512px">
<g id="surface1">
<path d="M 15 512 L 287.011719 512 C 295.296875 512 302.011719 505.285156 302.011719 497 L 302.011719 465 C 302.011719 445.445312 289.46875 428.769531 272.011719 422.578125 L 272.011719 403.058594 C 272.011719 379.3125 252.691406 359.996094 228.945312 359.996094 L 73.066406 359.996094 C 49.320312 359.996094 30 379.3125 30 403.058594 L 30 422.578125 C 12.542969 428.769531 0 445.445312 0 465 L 0 497 C 0 505.285156 6.714844 512 15 512 Z M 73.066406 389.996094 L 228.945312 389.996094 C 236.148438 389.996094 242.011719 395.855469 242.011719 403.058594 L 242.011719 420 L 60.003906 420 L 60.003906 403.058594 C 60.003906 395.855469 65.863281 389.996094 73.066406 389.996094 Z M 30 465 C 30 456.726562 36.730469 450 45 450 L 257.007812 450 C 265.28125 450 272.011719 456.726562 272.011719 465 L 272.011719 482 L 30 482 Z M 30 465 " style=" fill-rule:nonzero;fill-opacity:1;" stroke="#FFFFFF" fill="#FFFFFF"/>
<path d="M 172.789062 312.28125 C 187.667969 332.042969 215.925781 336.136719 235.808594 321.167969 C 249.050781 311.199219 255.210938 295.277344 253.40625 279.894531 C 266.304688 277.699219 278.769531 274.109375 290.621094 269.269531 L 431.066406 455.8125 C 445.949219 475.585938 474.210938 479.660156 494.085938 464.699219 C 513.90625 449.773438 517.894531 421.503906 502.96875 401.679688 L 362.527344 215.136719 C 370.449219 205.085938 377.34375 194.105469 383.019531 182.320312 C 397.476562 188.382812 414.457031 186.667969 427.550781 176.808594 C 447.375 161.882812 451.363281 133.613281 436.4375 113.789062 L 364.257812 17.917969 C 349.332031 -1.90625 321.0625 -5.890625 301.238281 9.035156 C 287.996094 19.003906 281.835938 34.921875 283.640625 50.304688 C 227.117188 59.933594 178.925781 96.210938 154.035156 147.863281 C 139.605469 141.8125 122.699219 143.453125 109.496094 153.390625 C 89.625 168.351562 85.648438 196.539062 100.609375 216.410156 Z M 341.679688 237.328125 L 361.710938 263.933594 L 337.742188 281.976562 L 317.710938 255.375 C 326.199219 250.050781 334.214844 244.011719 341.679688 237.328125 Z M 476.039062 440.730469 C 469.429688 445.707031 460.007812 444.378906 455.03125 437.769531 L 355.785156 305.945312 L 379.753906 287.902344 L 479 419.722656 C 483.976562 426.332031 482.644531 435.753906 476.039062 440.730469 Z M 319.285156 33.003906 C 325.914062 28.011719 335.332031 29.378906 340.292969 35.964844 L 412.46875 131.835938 C 417.445312 138.441406 416.117188 147.867188 409.507812 152.839844 C 402.886719 157.828125 393.492188 156.503906 388.503906 149.878906 L 316.324219 54.007812 C 311.347656 47.398438 312.675781 37.976562 319.285156 33.003906 Z M 297.335938 78.664062 C 303.832031 87.296875 352.949219 152.539062 359.554688 161.308594 C 339.082031 211.074219 293.214844 245.617188 239.714844 251.535156 L 177.496094 168.886719 C 197.992188 119.0625 243.785156 84.589844 297.335938 78.664062 Z M 127.542969 177.359375 C 134.148438 172.382812 143.550781 173.683594 148.546875 180.320312 L 220.726562 276.191406 C 220.726562 276.191406 220.726562 276.191406 220.726562 276.195312 C 225.699219 282.800781 224.371094 292.222656 217.765625 297.199219 C 211.15625 302.171875 201.734375 300.84375 196.757812 294.238281 L 124.578125 198.367188 C 119.59375 191.742188 120.917969 182.347656 127.542969 177.359375 Z M 127.542969 177.359375 " style=" fill-rule:nonzero;fill-opacity:1;" stroke="#FFFFFF" fill="#FFFFFF"/>
</g>
</svg>
